<?xml version="1.0" standalone="no"?>
<!DOCTYPE svg PUBLIC "-//W3C//DTD SVG 20010904//EN"
 "http://www.w3.org/TR/2001/REC-SVG-20010904/DTD/svg10.dtd">
<svg version="1.0" xmlns="http://www.w3.org/2000/svg"
 width="177.000000pt" height="177.000000pt" viewBox="0 0 177.000000 177.000000"
 preserveAspectRatio="xMidYMid meet">
<metadata>
Created by potrace 1.11, written by Peter Selinger 2001-2013
</metadata>
<g transform="translate(0.000000,177.000000) scale(0.100000,-0.100000)"
fill="#000000" stroke="none">
<path d="M0 885 l0 -885 885 0 885 0 0 885 0 885 -885 0 -885 0 0 -885z m1037
721 c129 -28 253 -92 347 -181 27 -25 52 -45 58 -45 5 0 6 -4 3 -10 -3 -5 -2
-10 2 -10 14 0 88 -120 116 -190 42 -102 57 -176 57 -282 0 -203 -64 -370
-194 -508 -102 -108 -188 -162 -326 -204 -346 -104 -700 41 -872 359 -91 168
-110 399 -48 579 10 30 16 57 13 60 -4 3 -1 6 6 6 7 0 9 5 6 10 -3 6 -2 10 3
10 5 0 16 15 23 33 18 43 68 110 132 176 46 47 88 79 177 133 27 16 169 64
210 71 60 10 224 6 287 -7z"/>
<path d="M715 1531 c-115 -29 -250 -108 -317 -185 -14 -17 -38 -44 -51 -60
-44 -51 -105 -187 -122 -273 -23 -115 -15 -241 24 -354 54 -154 185 -300 336
-373 126 -61 171 -71 305 -70 137 2 233 29 345 99 137 85 261 248 290 380 2
11 9 36 14 55 18 57 13 216 -9 298 -40 151 -113 260 -251 374 -41 34 -164 95
-204 102 -16 2 -44 9 -60 14 -54 16 -224 13 -300 -7z m-79 -400 l79 -89 20 22
c47 51 120 139 123 147 8 21 31 3 106 -82 l79 -90 51 57 c28 31 65 73 82 92
35 38 43 37 84 -12 14 -17 35 -41 47 -54 12 -13 50 -55 85 -94 35 -39 82 -92
105 -117 23 -25 43 -49 43 -52 0 -10 -48 -59 -59 -59 -5 0 -21 15 -36 33 -15
17 -73 83 -129 145 l-101 113 -54 -57 c-38 -39 -52 -60 -45 -69 5 -7 33 -40
62 -74 60 -71 62 -59 -29 -163 -93 -106 -195 -221 -232 -262 l-36 -40 -23 25
c-26 28 -186 206 -233 258 -16 19 -45 50 -62 70 -18 20 -33 38 -33 41 0 3 27
39 60 79 62 77 67 86 50 96 -6 4 -28 28 -49 55 l-38 48 -129 -149 c-71 -82
-132 -149 -136 -149 -4 0 -22 13 -39 28 l-32 28 29 30 c16 17 56 61 89 99 33
38 65 73 70 79 6 6 39 44 74 84 34 39 66 72 71 72 4 0 43 -40 86 -89z"/>
<path d="M818 1026 c-32 -39 -83 -101 -114 -138 l-56 -68 38 -46 c20 -26 63
-73 94 -105 31 -33 54 -59 53 -59 -2 0 8 -12 22 -27 25 -27 26 -28 41 -8 18
25 97 115 163 185 28 30 51 60 51 65 0 6 -15 26 -33 45 -17 19 -65 73 -106
120 -41 47 -80 90 -85 96 -8 8 -27 -8 -68 -60z"/>
</g>
</svg>
